# xmcd
#
# Track frame offsets: 
#        150
#        14847
#        29251
#        42805
#        59427
#        73599
#        88944
#        102228
#        118056
#        132923
#        147693
#
# Disc length: 2173 seconds
#
# Revision: 1
# Processed by: cddbd v1.5.2PL0 Copyright (c) Steve Scherf et al.
# Submitted via: ExactAudioCopy v1.0b3
#
DISCID=a6087b0b
DTITLE=Will Hoge - Never Give In
DYEAR=2013
DGENRE=Country
TTITLE0=A Different Man
TTITLE1=Goodbye Ain't Always Gone
TTITLE2=Never Give In
TTITLE3=This Time Around
TTITLE4=Still Got You On My Mind
TTITLE5=Home Is Where The Heart Breaks
TTITLE6=Daddy Was A Gambling Man
TTITLE7=Pale September
TTITLE8=Bad Ol' Days
TTITLE9=Damn Spotlight (Julia's Song)
TTITLE10=Strong
EXTD=
EXTT0=
EXTT1=
EXTT2=
EXTT3=
EXTT4=
EXTT5=
EXTT6=
EXTT7=
EXTT8=
EXTT9=
EXTT10=
PLAYORDER=
